<svg xmlns="http://www.w3.org/2000/svg" width="32" height="32" viewBox="0 0 32 32"><path d="M5.283 19.58c.742 3.01 1.686 4.323 4.835 5.7 3.15 1.376 4.646 2.88 5.882 2.88s2.635-1.315 5.786-2.694c3.15-1.374 2.31-1.797 3.053-4.803L16 24.96 5.285 19.583zm25.935-7.842l-13.32-7.46c-1.043-.583-2.75-.583-3.794 0L.782 11.74c-1.043.584-1.043 1.54 0 2.125l13.32 7.46c1.043.583 2.75.583 3.794 0l8.61-4.823-9.337-2.187c-.36.09-.755.14-1.17.14-1.683 0-3.046-.812-3.046-1.812S14.317 10.83 16 10.83c1.305 0 2.417.49 2.85 1.178l9.89 3.245 2.477-1.386c1.043-.584 1.043-1.54 0-2.125zm-4.07 14.137c-.102.613 2.052 1.626 2.257-.174.926-8.113-.666-10.45-.666-10.45l-2.233 1.25s1.893 1.8.64 9.375z"/></svg>