<svg xmlns="http://www.w3.org/2000/svg" width="32" height="32" viewBox="0 0 32 32"><path d="M32 30.08s-.062-6.06-.434-6.686c-.552-.936-1.834-1.578-4.214-2.573-2.373-.99-3.133-1.83-3.133-3.62 0-1.077.724-.725 1.042-2.694.13-.818.77-.014.894-1.878 0-.744-.35-.93-.35-.93s.177-1.1.247-1.947c.086-1.055-.533-3.78-3.827-3.78s-3.91 2.726-3.826 3.78c.07.847.245 1.948.245 1.948s-.35.186-.35.93c.124 1.866.764 1.062.897 1.878.317 1.97 1.042 1.618 1.042 2.694 0 1.218-.352 1.995-1.323 2.678 5.185 2.595 5.88 3.125 5.88 5.445v4.757H32zm-15.642-8.36c-3.166-1.322-4.176-2.438-4.176-4.827 0-1.434.966-.966 1.39-3.594.174-1.09 1.03-.02 1.192-2.505 0-.992-.466-1.238-.466-1.238s.237-1.467.33-2.597c.115-1.405-.71-5.04-5.102-5.04s-5.216 3.634-5.1 5.04c.092 1.13.327 2.597.327 2.597s-.464.246-.464 1.238c.164 2.488 1.017 1.416 1.193 2.504.424 2.626 1.39 2.157 1.39 3.593 0 2.39-1.013 3.506-4.176 4.827C1.732 22.123 0 22.75 0 24.25v5.83h22.23v-4.37c0-1.37-2.7-2.662-5.873-3.99z"/></svg>