<svg xmlns="http://www.w3.org/2000/svg" width="185" height="84.206" viewBox="0 0 185 84.206">
	<path fill="#C02424" d="M0 0v75.338s41.205 8.868 94.832 8.868c53.59 0 90.168-8.868 90.168-8.868V0H0z" />
	<path fill="#fff" d="M47.09 21.1L40.9 36.58v21.787l6.19-15.48zM31.955 42.886l6.192 15.48V36.58L31.955 21.1zM87.837 33.98H82.37v8.103c-.42.115-.878.115-1.3.115-4.624 0-6-4.55-6-8.486 0-3.86 2.446-6.536 7.033-6.536 1.796 0 3.975.344 5.772 1.223v-4.09c-1.988-.536-4.74-.88-5.695-.88-7.99 0-13.187 3.975-13.187 11.16 0 7.11 5.39 10.856 12.04 10.856 2.293 0 4.625-.382 6.804-.994V33.98zM59.896 54.162h-.04l-16.473 6.65H64.56V37.345h-4.664zM78.778 55.118v1.338c-.038 1.147-.344 1.988-.917 2.523-.572.534-1.643.802-2.675.802-1.11 0-2.255-.306-2.905-.88-.535-.534-.803-1.45-.803-2.827V47.97H70.1v6.766c0 1.414.04 2.332.116 2.676.153.994.535 1.758 1.147 2.332.88.84 2.293 1.26 3.784 1.26s2.943-.42 3.784-1.222c.574-.573.957-1.3 1.148-2.217.076-.46.115-1.338.115-2.56v-7.072h-1.376l-.04 7.185zM104.846 28.858c1.605 0 2.943-1.108 2.943-2.523 0-1.376-1.3-2.523-2.944-2.523-1.605 0-2.943 1.108-2.943 2.523 0 1.377 1.3 2.523 2.943 2.523zM137.03 28.858c1.605 0 2.943-1.108 2.943-2.523 0-1.376-1.3-2.523-2.943-2.523-1.605 0-2.943 1.108-2.943 2.523.038 1.377 1.338 2.523 2.943 2.523zM161.187 36.12h-.038c0-1.49.305-2.598 1.91-2.598 1.414 0 1.95.726 1.95 3.058v8.6h5.465v-8.715c0-1.53.19-3.21-.88-4.434-1.184-1.337-2.713-1.834-4.47-1.834-1.377 0-2.906.306-3.938 1.338v-7.53h-5.466V45.14h5.467v-9.02zM102.094 30.617h5.466V45.18h-5.466zM19.188 37.382h-4.663v23.47H35.7l-16.512-6.69zM27.597 31.725l-5.045-3.21V50.3l13.99 8.944-8.945-13.57zM56.494 28.514l-5.046 3.21v13.953l-8.944 13.57 13.99-8.945zM153.81 45.41v-3.25c-1.032.19-1.988.19-2.217.19-2.637 0-2.6-1.796-2.6-3.86v-4.893h4.78v-2.943h-4.78V24.04h-5.465v6.614h-2.102v2.943h2.102v5.58c0 2.218.268 3.938 2.217 5.085 1.797 1.07 4.013 1.223 6.04 1.223.458 0 1.184-.038 2.025-.076zM92.462 58.672l-7.95-10.702h-1.53v12.843h1.338v-10.55l7.836 10.55h1.605V47.97h-1.336zM146.395 47.97h1.453v12.843h-1.453zM168.984 47.97l-3.936 6.192-4.052-6.192h-1.644l4.97 7.645v5.198h1.375v-5.198l4.93-7.645zM130.57 54.736c.688-.115 1.452-.573 1.797-.88.65-.572.917-1.375.917-2.33 0-1.07-.382-1.95-1.147-2.638-.46-.42-1.07-.688-1.873-.84-.42-.04-1.108-.077-2.14-.077h-4.282v12.844h1.376v-5.657h2.752c1.07 0 1.797.153 2.217.535.19.19.382.46.612.88.075.114.228.458.458.955l1.567 3.287h1.453l-2.14-4.434c-.306-.88-1.033-1.606-1.568-1.644zm-1.185-.84c-.382.037-1.07.075-2.064.075h-2.063v-4.815h3.134c.765 0 1.3.038 1.645.115.46.076.84.23 1.108.497.497.46.764 1.032.764 1.682 0 .687-.23 1.222-.688 1.643-.42.42-1.032.687-1.835.802zM149.567 49.193h3.937v11.62h1.376v-11.62h3.708V47.97h-9.02zM140.967 53.78c-.726-.268-1.49-.535-2.217-.803-1.108-.497-1.682-1.147-1.682-1.95 0-.572.23-1.107.764-1.49.535-.42 1.223-.573 2.18-.573.61 0 1.108.076 1.528.23.956.305 1.414.84 1.49.916l.918-.84c-.19-.192-.803-.842-1.988-1.224-.535-.19-1.223-.306-2.064-.306-1.223 0-2.255.306-3.02.917s-1.147 1.414-1.147 2.37c0 .917.343 1.682 1.07 2.255.458.344 1.222.764 2.33 1.185 1.07.42 1.912.726 2.294.956.84.535 1.223 1.147 1.223 1.835 0 .764-.268 1.414-.803 1.873-.535.46-1.26.613-2.293.613-1.757 0-3.21-1.07-3.4-1.223l-.842.956c.306.268 1.682 1.49 4.205 1.49 1.452 0 2.6-.343 3.402-1.07.726-.687 1.108-1.604 1.108-2.713-.038-.84-.382-1.644-1.108-2.293-.457-.384-1.107-.766-1.948-1.11zM96.552 47.97h1.414v12.843h-1.414zM128.506 45.18V33.56h5.734v11.62h5.466V30.655h-11.2v-2.293c0-1.338.27-2.332 2.677-2.332.23 0 .726.038 1.185.115.038-1.185.688-2.217 1.376-2.79-.726-.076-1.452-.076-1.91-.076-2.027 0-4.817.152-6.614 1.222-1.95 1.147-2.217 2.867-2.217 5.084v1.07h-5.695v-2.293c0-1.605.573-2.332 3.134-2.332.23 0 .84.04 1.3.077.344-1.108 1.07-2.102 2.217-2.867-.613-.038-1.34-.076-2.18-.076-2.56 0-5.925.23-7.72 1.3-1.95 1.147-2.218 2.867-2.218 5.084v1.07h-2.102v2.943h2.102v11.62h5.466V33.56h5.695v11.62h5.503zM100.412 30.31c-.268-.037-.803-.114-1.185-.114-2.026 0-2.943 1.873-3.402 3.516v-3.096H90.36V45.14h5.465v-6.994c0-2.255 1.223-4.243 2.943-4.243.535 0 1.108.115 1.644.268v-3.86zM114.02 54.66H120.785v-1.224h-6.727v-4.243h7.415V47.97h-8.83v12.843h9.212v-1.26h-7.835zM105.458 59.246L101.29 47.97h-1.604l4.93 12.843h1.606l5.007-12.843h-1.49z" />
</svg>